<svg width="46" height="62" viewBox="0 0 46 62" fill="none" xmlns="http://www.w3.org/2000/svg">
<path d="M28.1513 62H23.3679C21.7121 62 20.4243 60.7122 20.4243 59.0564C20.4243 57.4006 21.7121 56.1128 23.3679 56.1128H28.1513C29.8071 56.1128 31.0949 57.4006 31.0949 59.0564C31.0949 60.7122 29.8071 62 28.1513 62Z" fill="#0B2045"/>
<path d="M32.1989 52.6172L19.3205 52.8012C17.2968 52.8012 15.641 51.1454 15.641 49.1217V46.1781L35.8784 45.9941V48.9377C35.8784 50.9614 34.2226 52.6172 32.1989 52.6172Z" fill="#0B2045"/>
<path d="M45.6291 11.0386C45.6291 10.8546 45.6291 10.6706 45.6291 10.6706C45.6291 10.4866 45.6291 10.4866 45.6291 10.3027C45.6291 10.1187 45.4451 9.93472 45.4451 9.75074C45.4451 9.75074 45.4451 9.56676 45.2611 9.56676C45.0772 9.38279 45.0772 9.19881 44.8932 8.83086C44.7092 8.64688 44.3413 8.09496 44.3413 8.09496C39.7418 3.1276 33.1187 0 25.7597 0C11.5935 0 0.186951 11.4065 0.186951 25.5727C0.186951 39.7389 11.5935 51.1454 25.7597 51.1454C32.3828 51.1454 38.27 48.5697 42.8694 44.5223C43.9733 43.6024 44.7092 42.1306 44.7092 40.4748C44.7092 37.5312 42.3175 35.1395 39.3739 35.1395C38.0861 35.1395 36.7982 35.6914 35.8783 36.4273C34.2226 37.8991 32.1988 39.1869 29.9911 39.7389H29.8071C28.5193 40.1068 27.2315 40.2908 25.9436 40.2908C17.6647 40.2908 11.0416 33.6677 11.0416 25.3887C11.0416 17.1098 17.6647 10.4866 25.9436 10.4866C29.0712 10.4866 31.8309 11.4065 34.2226 13.0623L28.3353 19.6855L34.5905 25.5727L44.7092 13.9822C44.8932 13.7982 45.0772 13.6142 45.2611 13.2463C45.2611 13.2463 45.2611 13.0623 45.4451 13.0623C45.4451 12.8783 45.6291 12.6944 45.6291 12.5104C45.6291 12.3264 45.6291 12.3264 45.6291 12.1424C45.6291 11.9585 45.6291 11.7745 45.8131 11.5905C45.8131 11.4065 45.8131 11.4065 45.8131 11.2226C45.8131 11.0386 45.8131 10.8546 45.8131 10.8546C45.6291 11.2226 45.6291 11.0386 45.6291 11.0386Z" fill="#0B2045"/>
<path d="M34.4065 19.1335C32.5667 17.4777 29.9911 17.6617 28.3353 19.5014L26.3115 21.8931L24.2878 19.5014C22.632 17.6617 20.0564 17.4777 18.2166 19.1335C16.3768 20.7893 16.1928 23.3649 17.8486 25.2047L23.1839 31.2759C23.1839 31.2759 23.3679 31.6439 23.5519 31.6439C23.5519 31.6439 23.9199 31.8279 23.9199 32.0118C24.1038 32.1958 24.2878 32.1958 24.2878 32.1958C24.4718 32.1958 24.4718 32.1958 24.6558 32.3798C24.8397 32.3798 25.0237 32.5638 25.2077 32.5638C25.3917 32.5638 25.3917 32.5638 25.5756 32.5638C25.7596 32.5638 25.9436 32.5638 25.9436 32.5638C26.1276 32.5638 26.1276 32.5638 26.3115 32.5638C26.4955 32.5638 26.4955 32.5638 26.6795 32.5638C26.8635 32.5638 27.0474 32.5638 27.0474 32.5638C27.2314 32.5638 27.2314 32.5638 27.4154 32.5638C27.5994 32.5638 27.7833 32.3798 27.9673 32.3798C28.1513 32.3798 28.1513 32.3798 28.3353 32.1958C28.5193 32.1958 28.8872 31.8278 29.0712 31.8278L29.6231 31.2759L34.9584 25.2047C36.4302 23.5489 36.2463 20.7893 34.4065 19.1335Z" fill="#3A84F6"/>
</svg>
