<svg width="24" height="25" viewBox="0 0 24 25" fill="none" xmlns="http://www.w3.org/2000/svg">
<path d="M12.1097 6.84399H5.42167C4.90967 6.84399 4.46167 7.25999 4.46167 7.80399C4.46167 8.33199 4.90967 8.74799 5.42167 8.74799H7.67767V17.02C7.67767 17.644 8.17367 18.156 8.76567 18.156C9.34167 18.156 9.83767 17.644 9.83767 17.02V8.74799H12.1097C12.6217 8.74799 13.0537 8.33199 13.0537 7.80399C13.0537 7.25999 12.6217 6.84399 12.1097 6.84399Z" fill="#0F172A"/>
<path d="M18.8185 11.044H14.7085C14.3185 11.044 13.9785 11.364 13.9785 11.774C13.9785 12.174 14.3185 12.494 14.7085 12.494H15.9385V17.264C15.9385 17.734 16.3185 18.124 16.7685 18.124C17.1985 18.124 17.5785 17.734 17.5785 17.264V12.494H18.8185C19.2085 12.494 19.5385 12.174 19.5385 11.774C19.5385 11.364 19.2085 11.044 18.8185 11.044Z" fill="#0F172A"/>
</svg>
